<svg width="18" height="20" viewBox="0 0 18 20" fill="none" xmlns="http://www.w3.org/2000/svg">
<g clip-path="url(#clip0_59_811)">
<path d="M14.1467 3.42488C13.0682 1.3302 11.1525 0.050473 9.02217 0.00156677C8.93123 -0.000542602 8.8397 -0.000542602 8.74872 0.00156677C6.61844 0.050473 4.70274 1.3302 3.62416 3.42488C2.52171 5.56598 2.49155 8.13785 3.54346 10.3047L7.95033 19.3823C7.95231 19.3863 7.95428 19.3903 7.95633 19.3943C8.15022 19.7736 8.49756 20 8.88551 20C9.27343 20 9.62077 19.7735 9.81463 19.3943C9.81667 19.3903 9.81865 19.3863 9.82063 19.3823L14.2275 10.3047C15.2793 8.13785 15.2492 5.56598 14.1467 3.42488V3.42488ZM8.88544 9.0625C7.50743 9.0625 6.38634 7.80082 6.38634 6.25C6.38634 4.69918 7.50743 3.4375 8.88544 3.4375C10.2635 3.4375 11.3846 4.69918 11.3846 6.25C11.3846 7.80082 10.2635 9.0625 8.88544 9.0625Z" fill="#4C5D77"/>
</g>
<defs>
<clipPath id="clip0_59_811">
<rect width="17.7714" height="20" fill="white"/>
</clipPath>
</defs>
</svg>
