<svg width="16" height="17" viewBox="0 0 16 17" fill="none" xmlns="http://www.w3.org/2000/svg">
<g clip-path="url(#clip0_0_59)">
<path d="M15.7824 7.89086L11.021 2.86352C10.7304 2.55679 10.2593 2.55679 9.9688 2.86352C9.67823 3.17031 9.67823 3.66764 9.9688 3.97444L13.4602 7.6608H0.743971C0.333121 7.6608 0 8.01252 0 8.44632C0 8.88005 0.333121 9.23184 0.743971 9.23184H13.4602L9.96892 12.9182C9.67835 13.225 9.67835 13.7223 9.96892 14.0291C10.1141 14.1824 10.3046 14.2592 10.495 14.2592C10.6854 14.2592 10.8758 14.1824 11.0211 14.0291L15.7824 9.00178C16.0729 8.69498 16.0729 8.19765 15.7824 7.89086Z" fill="#7737FF"/>
</g>
<defs>
<clipPath id="clip0_0_59">
<rect width="15.9251" height="16.8145" fill="white" transform="scale(1.00472)"/>
</clipPath>
</defs>
</svg>
