<svg width="284" height="52" viewBox="0 0 284 52" fill="none" xmlns="http://www.w3.org/2000/svg">
<g clip-path="url(#clip0_191_765)">
<path d="M120.187 22.9167C119.631 22.9167 119.085 22.9772 118.558 23.0876C117.856 15.9855 111.846 10.4167 104.562 10.4167C103.7 10.4167 103 11.1167 103 11.9792V36.9793C103 37.8418 103.7 38.5418 104.562 38.5418H120.187C124.498 38.5418 128 35.0397 128 30.7293C128 26.423 124.498 22.9167 120.187 22.9167Z" fill="white"/>
<path d="M96.75 15.1042V36.9792C96.75 37.8417 97.45 38.5417 98.3125 38.5417C99.175 38.5417 99.875 37.8417 99.875 36.9792V15.1042C99.875 14.2417 99.175 13.5417 98.3125 13.5417C97.45 13.5417 96.75 14.2417 96.75 15.1042Z" fill="white"/>
<path d="M90.5 21.3542V36.9791C90.5 37.8416 91.2 38.5416 92.0625 38.5416C92.925 38.5416 93.625 37.8416 93.625 36.9791V21.3542C93.625 20.4917 92.925 19.7917 92.0625 19.7917C91.2 19.7917 90.5 20.4917 90.5 21.3542Z" fill="white"/>
<path d="M84.25 36.9791C84.25 37.8416 84.95 38.5416 85.8125 38.5416C86.675 38.5416 87.375 37.8416 87.375 36.9791V21.3542C87.375 20.4917 86.675 19.7917 85.8125 19.7917C84.95 19.7917 84.25 20.4917 84.25 21.3542V36.9791Z" fill="white"/>
<path d="M79.5625 38.5417C80.425 38.5417 81.125 37.8417 81.125 36.9792V27.6042C81.125 26.7417 80.425 26.0417 79.5625 26.0417C78.7 26.0417 78 26.7417 78 27.6042V36.9792C78 37.8417 78.7 38.5417 79.5625 38.5417Z" fill="white"/>
</g>
<path d="M192.817 34.8292C186.084 30.3938 177.619 29.3167 167.659 31.6375C165.659 32.1021 166.334 35.1375 168.367 34.6813C184.392 30.9563 190.34 37.6979 191.957 37.6979C193.503 37.6958 194.109 35.6813 192.817 34.8292Z" fill="white"/>
<path d="M166.952 26.8667C175.912 24.7458 186.085 25.9792 193.502 30.0792C195.306 31.0771 196.818 28.3417 195.014 27.3458C186.941 22.8833 175.916 21.5375 166.233 23.8271C164.224 24.3 164.935 27.3396 166.952 26.8667V26.8667Z" fill="white"/>
<path d="M165.769 18.7375C175.206 15.85 188.446 17.4333 195.913 22.3417C197.627 23.4687 199.359 20.8667 197.629 19.7312C189.338 14.2792 175.25 12.5688 164.854 15.7479C162.871 16.3542 163.804 19.3437 165.769 18.7375V18.7375Z" fill="white"/>
<path d="M181 50C194.785 50 206 38.7854 206 25C206 11.2146 194.785 0 181 0C167.215 0 156 11.2146 156 25C156 38.7854 167.215 50 181 50ZM181 3.125C193.062 3.125 202.875 12.9375 202.875 25C202.875 37.0625 193.062 46.875 181 46.875C168.937 46.875 159.125 37.0625 159.125 25C159.125 12.9375 168.937 3.125 181 3.125Z" fill="white"/>
<path d="M259 14.3047C252.808 14.3047 247.77 19.3427 247.77 25.5352C247.77 28.5027 248.927 31.2046 250.813 33.2145C251.101 32.1849 251.582 31.2103 252.242 30.3458C251.272 28.9876 250.699 27.3275 250.699 25.5352C250.699 20.9581 254.423 17.2344 259 17.2344C263.577 17.2344 267.301 20.9581 267.301 25.5352C267.301 27.3275 266.728 28.9876 265.758 30.3459C266.418 31.2104 266.899 32.1849 267.187 33.2146C269.073 31.2046 270.23 28.5027 270.23 25.5352C270.23 19.3427 265.192 14.3047 259 14.3047Z" fill="white"/>
<path d="M259 8.44531C249.577 8.44531 241.91 16.1118 241.91 25.5352C241.91 32.1339 245.67 37.8705 251.159 40.7171L250.62 36.9419C247.117 34.3616 244.84 30.2096 244.84 25.5352C244.84 17.7272 251.192 11.375 259 11.375C266.808 11.375 273.16 17.7272 273.16 25.5352C273.16 30.2096 270.883 34.3616 267.38 36.9419L266.841 40.7171C272.33 37.8705 276.09 32.1339 276.09 25.5352C276.09 16.1118 268.423 8.44531 259 8.44531Z" fill="white"/>
<path d="M273.746 2H244.254C238.6 2 234 6.5999 234 12.2539V41.7461C234 47.4001 238.6 52 244.254 52H273.746C279.4 52 284 47.4001 284 41.7461V12.2539C284 6.5999 279.4 2 273.746 2ZM281.07 41.7461C281.07 45.7847 277.785 49.0703 273.746 49.0703H244.254C240.215 49.0703 236.93 45.7847 236.93 41.7461V12.2539C236.93 8.21533 240.215 4.92969 244.254 4.92969H273.746C277.785 4.92969 281.07 8.21533 281.07 12.2539V41.7461Z" fill="white"/>
<path d="M259 20.1641C256.577 20.1641 254.605 22.1354 254.605 24.5586C254.605 26.9817 256.577 28.9531 259 28.9531C261.423 28.9531 263.395 26.9817 263.395 24.5586C263.395 22.1354 261.423 20.1641 259 20.1641ZM259 26.0234C258.192 26.0234 257.535 25.3663 257.535 24.5586C257.535 23.7509 258.192 23.0938 259 23.0938C259.808 23.0938 260.465 23.7509 260.465 24.5586C260.465 25.3663 259.808 26.0234 259 26.0234Z" fill="white"/>
<path d="M263.946 31.2104C262.701 29.7759 260.899 28.9531 259 28.9531C257.101 28.9531 255.298 29.7759 254.054 31.2104C252.81 32.6449 252.251 34.5458 252.519 36.4256L253.284 41.7816C253.592 43.9326 255.462 45.5547 257.635 45.5547H260.365C262.538 45.5547 264.408 43.9326 264.716 41.7816L265.481 36.4257C265.749 34.5458 265.19 32.6449 263.946 31.2104ZM262.581 36.0113L261.816 41.3673C261.713 42.0843 261.09 42.625 260.365 42.625H257.635C256.91 42.625 256.287 42.0844 256.184 41.3674L255.419 36.0113C255.271 34.9728 255.58 33.9226 256.268 33.13C256.955 32.3374 257.951 31.8828 259 31.8828C260.049 31.8828 261.045 32.3374 261.733 33.13C262.42 33.9225 262.729 34.9728 262.581 36.0113Z" fill="white"/>
<path d="M21.875 23.4375H16.75C16.4773 22.9652 16.0858 22.5725 15.6143 22.2984C15.1429 22.0242 14.6079 21.8783 14.0625 21.875C13.2337 21.875 12.4388 22.2042 11.8528 22.7903C11.2667 23.3763 10.9375 24.1712 10.9375 25C10.9375 25.8288 11.2667 26.6237 11.8528 27.2097C12.4388 27.7958 13.2337 28.125 14.0625 28.125C14.6079 28.1217 15.1429 27.9758 15.6143 27.7016C16.0858 27.4275 16.4773 27.0348 16.75 26.5625H21.875C22.2894 26.5625 22.6868 26.3979 22.9799 26.1049C23.2729 25.8118 23.4375 25.4144 23.4375 25C23.4375 24.5856 23.2729 24.1882 22.9799 23.8951C22.6868 23.6021 22.2894 23.4375 21.875 23.4375Z" fill="white"/>
<path d="M25.7813 31.7656C26.9689 31.0799 27.9551 30.0937 28.6407 28.9061C29.3263 27.7185 29.6873 26.3713 29.6873 25C29.6873 23.6287 29.3263 22.2815 28.6407 21.0939C27.9551 19.9063 26.9689 18.9201 25.7813 18.2344C25.4243 18.0476 25.0088 18.006 24.6217 18.1183C24.2347 18.2305 23.906 18.488 23.7043 18.8369C23.5026 19.1858 23.4436 19.5992 23.5395 19.9906C23.6353 20.3821 23.8787 20.7213 24.2188 20.9375C24.9329 21.3485 25.5259 21.9404 25.9383 22.6536C26.3507 23.3669 26.5678 24.1762 26.5678 25C26.5678 25.8238 26.3507 26.6331 25.9383 27.3464C25.5259 28.0596 24.9329 28.6515 24.2188 29.0625C24.0348 29.1658 23.8735 29.3053 23.7448 29.4726C23.6161 29.6399 23.5227 29.8316 23.4701 30.036C23.4176 30.2405 23.407 30.4534 23.439 30.6621C23.471 30.8707 23.5449 31.0707 23.6563 31.25C23.7927 31.4862 23.9884 31.6825 24.2242 31.8196C24.4599 31.9566 24.7274 32.0296 25.0001 32.0312C25.2796 32.0143 25.5494 31.9226 25.7813 31.7656Z" fill="white"/>
<path d="M27.2344 36.2969C29.3733 35.2838 31.1806 33.6843 32.4462 31.6845C33.7118 29.6847 34.3837 27.3667 34.3837 25C34.3837 22.6333 33.7118 20.3153 32.4462 18.3155C31.1806 16.3157 29.3733 14.7162 27.2344 13.7031C26.8594 13.5249 26.4289 13.503 26.0378 13.6422C25.6466 13.7814 25.3267 14.0703 25.1485 14.4453C24.9703 14.8203 24.9484 15.2508 25.0876 15.642C25.2268 16.0332 25.5156 16.3531 25.8907 16.5312C27.4927 17.2919 28.8461 18.4914 29.7937 19.9905C30.7414 21.4895 31.2444 23.2266 31.2444 25C31.2444 26.7734 30.7414 28.5105 29.7937 30.0095C28.8461 31.5086 27.4927 32.708 25.8907 33.4687C25.564 33.6175 25.2985 33.8742 25.1387 34.1956C24.979 34.5171 24.9349 34.8838 25.0137 35.234C25.0926 35.5842 25.2896 35.8966 25.5717 36.1186C25.8537 36.3406 26.2036 36.4587 26.5626 36.4531C26.7949 36.4479 27.0236 36.3947 27.2344 36.2969V36.2969Z" fill="white"/>
<path d="M28.7502 9.25C28.5606 9.15491 28.3536 9.09943 28.1419 9.08693C27.9301 9.07444 27.718 9.10518 27.5185 9.17731C27.3191 9.24943 27.1364 9.36142 26.9816 9.50644C26.8267 9.65146 26.7031 9.82649 26.6181 10.0209C26.5332 10.2152 26.4887 10.4248 26.4873 10.637C26.486 10.8491 26.5279 11.0592 26.6104 11.2546C26.6929 11.4501 26.8144 11.6266 26.9674 11.7736C27.1204 11.9205 27.3017 12.0348 27.5002 12.1094C30.0093 13.2033 32.1445 15.0056 33.6442 17.2954C35.1438 19.5852 35.9426 22.2629 35.9426 25C35.9426 27.7371 35.1438 30.4148 33.6442 32.7046C32.1445 34.9944 30.0093 36.7967 27.5002 37.8906C27.311 37.9722 27.1398 38.0903 26.9964 38.2383C26.8531 38.3863 26.7404 38.5611 26.6649 38.7528C26.5894 38.9445 26.5525 39.1493 26.5564 39.3553C26.5603 39.5613 26.605 39.7644 26.6877 39.9531C26.8097 40.2326 27.0108 40.4703 27.2662 40.6369C27.5217 40.8035 27.8203 40.8917 28.1252 40.8906C28.341 40.8874 28.5538 40.8395 28.7502 40.75C31.8138 39.4116 34.4205 37.2087 36.2511 34.4113C38.0817 31.6138 39.0568 28.3432 39.0568 25C39.0568 21.6568 38.0817 18.3862 36.2511 15.5887C34.4205 12.7913 31.8138 10.5884 28.7502 9.25V9.25Z" fill="white"/>
<defs>
<clipPath id="clip0_191_765">
<rect width="50" height="50" fill="white" transform="translate(78)"/>
</clipPath>
</defs>
</svg>
