<svg width="115" height="25" viewBox="0 0 115 25" fill="none" xmlns="http://www.w3.org/2000/svg">
<g clip-path="url(#clip0_0_18)">
<path d="M24.9756 7.35007C24.917 6.02172 24.7022 5.1085 24.3945 4.31717C24.077 3.4772 23.5886 2.72518 22.9488 2.10002C22.3236 1.46513 21.5667 0.971793 20.7364 0.659308C19.9405 0.351593 19.0321 0.136784 17.7037 0.0782166C16.3654 0.0146894 15.9406 0 12.5464 0C9.15216 0 8.72732 0.0146894 7.39401 0.0732565C6.06566 0.131824 5.15244 0.346824 4.36131 0.654348C3.52115 0.971793 2.76912 1.46017 2.14396 2.10002C1.50907 2.72518 1.01593 3.48216 0.703253 4.3124C0.395538 5.1085 0.180729 6.01676 0.122162 7.34511C0.0586347 8.68338 0.0439453 9.10822 0.0439453 12.5024C0.0439453 15.8967 0.0586347 16.3215 0.117202 17.6548C0.175769 18.9832 0.390769 19.8964 0.698484 20.6877C1.01593 21.5277 1.50907 22.2797 2.14396 22.9049C2.76912 23.5398 3.52611 24.0331 4.35635 24.3456C5.15244 24.6533 6.0607 24.8681 7.38924 24.9267C8.72236 24.9854 9.1474 24.9999 12.5416 24.9999C15.9358 24.9999 16.3607 24.9854 17.694 24.9267C19.0223 24.8681 19.9356 24.6533 20.7267 24.3456C22.4068 23.696 23.7352 22.3677 24.3847 20.6877C24.6923 19.8916 24.9073 18.9832 24.9658 17.6548C25.0244 16.3215 25.0391 15.8967 25.0391 12.5024C25.0391 9.10822 25.0341 8.68338 24.9756 7.35007ZM22.7243 17.5571C22.6705 18.7781 22.4654 19.4374 22.2944 19.8769C21.8744 20.966 21.01 21.8304 19.9209 22.2505C19.4813 22.4214 18.8172 22.6265 17.6011 22.6801C16.2825 22.7389 15.887 22.7534 12.5513 22.7534C9.21569 22.7534 8.81526 22.7389 7.50141 22.6801C6.28047 22.6265 5.62117 22.4214 5.18163 22.2505C4.63964 22.0502 4.14631 21.7328 3.74588 21.3176C3.33076 20.9123 3.01331 20.4239 2.813 19.8819C2.64207 19.4424 2.43699 18.7781 2.38338 17.5621C2.32462 16.2435 2.31013 15.8478 2.31013 12.5122C2.31013 9.17652 2.32462 8.77609 2.38338 7.46243C2.43699 6.24149 2.64207 5.58218 2.813 5.14264C3.01331 4.60047 3.33076 4.10732 3.75084 3.7067C4.15604 3.29158 4.64441 2.97414 5.18659 2.77402C5.62613 2.60309 6.29039 2.39801 7.50637 2.34421C8.82499 2.28564 9.22065 2.27095 12.5561 2.27095C15.8967 2.27095 16.2922 2.28564 17.606 2.34421C18.827 2.39801 19.4863 2.60309 19.9258 2.77402C20.4678 2.97414 20.9611 3.29158 21.3616 3.7067C21.7767 4.11209 22.0941 4.60047 22.2944 5.14264C22.4654 5.58218 22.6705 6.24626 22.7243 7.46243C22.7828 8.78105 22.7975 9.17652 22.7975 12.5122C22.7975 15.8478 22.7828 16.2385 22.7243 17.5571Z" fill="white"/>
<path d="M12.5462 6.08014C9.00068 6.08014 6.12402 8.9566 6.12402 12.5023C6.12402 16.048 9.00068 18.9244 12.5462 18.9244C16.0919 18.9244 18.9683 16.048 18.9683 12.5023C18.9683 8.9566 16.0919 6.08014 12.5462 6.08014ZM12.5462 16.6682C10.246 16.6682 8.38029 14.8026 8.38029 12.5023C8.38029 10.202 10.246 8.3364 12.5462 8.3364C14.8465 8.3364 16.7121 10.202 16.7121 12.5023C16.7121 14.8026 14.8465 16.6682 12.5462 16.6682V16.6682Z" fill="white"/>
<path d="M20.7224 5.82631C20.7224 6.65426 20.0511 7.32559 19.2229 7.32559C18.395 7.32559 17.7236 6.65426 17.7236 5.82631C17.7236 4.99816 18.395 4.32703 19.2229 4.32703C20.0511 4.32703 20.7224 4.99816 20.7224 5.82631V5.82631Z" fill="white"/>
</g>
<path fill-rule="evenodd" clip-rule="evenodd" d="M65.7902 4.17509C63.5975 1.97983 60.6814 0.77033 57.5747 0.769043C51.1732 0.769043 45.9633 5.97882 45.9607 12.3821C45.9598 14.429 46.4946 16.4271 47.5109 18.1884L45.8633 24.2065L52.0201 22.5915C53.7165 23.5169 55.6264 24.0046 57.57 24.0051H57.5749C63.9757 24.0051 69.1862 18.7949 69.1886 12.3914C69.1899 9.28802 67.983 6.37021 65.7902 4.17509ZM57.5747 22.0437H57.5707C55.8387 22.043 54.1399 21.5775 52.6576 20.6982L52.3053 20.4889L48.6518 21.4474L49.627 17.8853L49.3974 17.52C48.431 15.9831 47.9208 14.2067 47.9216 12.3828C47.9236 7.06057 52.2541 2.73056 57.5786 2.73056C60.157 2.73142 62.5807 3.73678 64.4031 5.5614C66.2256 7.38602 67.2287 9.8113 67.2278 12.3907C67.2255 17.7133 62.8954 22.0437 57.5747 22.0437V22.0437ZM62.8696 14.8141C62.5795 14.6687 61.1527 13.9669 60.8867 13.87C60.6209 13.7731 60.4272 13.7249 60.2339 14.0153C60.0404 14.3057 59.4843 14.9594 59.315 15.153C59.1456 15.3467 58.9765 15.371 58.6862 15.2256C58.396 15.0804 57.461 14.7739 56.3525 13.7853C55.4899 13.0158 54.9075 12.0655 54.7382 11.7751C54.5691 11.4844 54.7367 11.3425 54.8655 11.1829C55.1796 10.7928 55.4942 10.3838 55.5909 10.1902C55.6877 9.99656 55.6393 9.82704 55.5666 9.68184C55.4942 9.53665 54.9138 8.10828 54.6721 7.52706C54.4363 6.96144 54.1973 7.03783 54.0191 7.02896C53.85 7.02052 53.6564 7.0188 53.4629 7.0188C53.2695 7.0188 52.955 7.09133 52.689 7.38201C52.423 7.67255 51.6734 8.3745 51.6734 9.80286C51.6734 11.2312 52.7133 12.6111 52.8583 12.8048C53.0034 12.9985 54.9047 15.9296 57.8156 17.1864C58.508 17.4857 59.0484 17.6641 59.47 17.7978C60.1652 18.0187 60.7977 17.9875 61.2978 17.9129C61.8554 17.8295 63.0145 17.2108 63.2566 16.533C63.4983 15.8551 63.4983 15.2741 63.4257 15.153C63.3533 15.032 63.1597 14.9594 62.8696 14.8141V14.8141Z" fill="white"/>
<path d="M93.6118 1.26965C91.8932 1.26965 90.7695 2.39818 90.7695 3.88148C90.7695 5.33202 91.8597 6.49274 93.5459 6.49274H93.5785C95.3307 6.49274 96.4212 5.33202 96.4212 3.88148C96.3884 2.39818 95.3307 1.26965 93.6118 1.26965V1.26965Z" fill="white"/>
<path d="M91.0664 8.55652H96.0906V23.6721H91.0664V8.55652Z" fill="white"/>
<path d="M108.422 8.20154C105.712 8.20154 103.895 10.7484 103.895 10.7484V8.55631H98.8701V23.672H103.894V15.2308C103.894 14.7789 103.927 14.3277 104.06 14.0046C104.423 13.1022 105.249 12.1674 106.638 12.1674C108.456 12.1674 109.183 13.5535 109.183 15.5856V23.672H114.206V15.0049C114.206 10.362 111.728 8.20154 108.422 8.20154V8.20154Z" fill="white"/>
<defs>
<clipPath id="clip0_0_18">
<rect width="25" height="25" fill="white"/>
</clipPath>
</defs>
</svg>
