<svg width="16" height="16" viewBox="0 0 16 16" fill="none" xmlns="http://www.w3.org/2000/svg">
<g clip-path="url(#clip0_194_1370)">
<path d="M15.7821 6.79892L11.0208 2.03758C10.7303 1.74708 10.2591 1.74708 9.96863 2.03758C9.67807 2.32814 9.67807 2.79915 9.96863 3.08971L13.4599 6.58103H0.743959C0.333115 6.58103 0 6.91414 0 7.32498C0 7.73577 0.333115 8.06894 0.743959 8.06894H13.4599L9.96875 11.5603C9.67819 11.8508 9.67819 12.3218 9.96875 12.6124C10.114 12.7576 10.3044 12.8303 10.4948 12.8303C10.6852 12.8303 10.8756 12.7576 11.0209 12.6124L15.7821 7.85105C16.0727 7.56049 16.0727 7.08948 15.7821 6.79892Z" fill="#00006D"/>
</g>
<defs>
<clipPath id="clip0_194_1370">
<rect width="16" height="15.6" fill="white"/>
</clipPath>
</defs>
</svg>
