<svg width="16" height="16" viewBox="0 0 16 16" fill="none" xmlns="http://www.w3.org/2000/svg">
<g clip-path="url(#clip0_0_10)">
<path d="M15.7821 7.03253L11.0208 2.55265C10.7303 2.27932 10.2591 2.27932 9.96863 2.55265C9.67807 2.82604 9.67807 3.26921 9.96863 3.54259L13.4599 6.82752H0.743959C0.333115 6.82752 0 7.14094 0 7.5275C0 7.914 0.333115 8.22748 0.743959 8.22748H13.4599L9.96875 11.5124C9.67819 11.7858 9.67819 12.229 9.96875 12.5024C10.114 12.6389 10.3044 12.7074 10.4948 12.7074C10.6852 12.7074 10.8756 12.6389 11.0209 12.5024L15.7821 8.02247C16.0727 7.74909 16.0727 7.30592 15.7821 7.03253Z" fill="#7737FF"/>
</g>
<defs>
<clipPath id="clip0_0_10">
<rect width="16" height="15.0542" fill="white"/>
</clipPath>
</defs>
</svg>
